#!OML:ASF E:\Mandelcareful walks\Project 1\Capture day 1\Session 1\Subject1.ASF
:FULLY-SPECIFIED
:DEGREES
997
root 40.2298 15.8887 -15.4684 -1416.21 62.0074 -338.099
lowerback 6.39672 -4.31071 -9.45046
upperback 3.03984 -6.19957 0.855701
thorax 0.710486 -3.22616 6.46605
lowerneck -14.4754 -14.6412 -18.5924
upperneck 22.7864 -20.9318 17.9011
head 14.3214 -9.00724 6.07482
rclavicle -2.42517e-014 8.74653e-015
rhumerus -42.805 -6.62723 -68.7951
rradius 36.4322
rwrist -20.8072
rhand -15.4267 -29.7553
rfingers 7.12502
rthumb 10.7532 -59.4601
lclavicle -2.42517e-014 8.74653e-015
lhumerus -27.1432 -10.046 68.8474
lradius 46.9209
lwrist 19.6929
lhand -31.1813 -9.5657
lfingers 7.12502
lthumb -4.45821 20.3674
rfemur -35.4159 -18.2823 24.7223
rtibia 36.0961
rfoot -22.8886 -23.8073
rtoes 8.9231
lfemur 2.59943 16.1652 -25.4325
ltibia 38.0248
lfoot -18.1389 3.8573
ltoes -22.0011
998
root 40.4527 15.8815 -15.33 -1418.7 60.7381 -340.427
lowerback 6.67854 -4.40858 -8.54647
upperback 2.93069 -6.31164 1.16779
thorax 0.390782 -3.25709 6.32854
lowerneck -14.5305 -15.0025 -18.6892
upperneck 23.1995 -21.4697 17.7222
head 14.6201 -9.24752 5.88667
rclavicle 3.4191e-014 3.18055e-014
rhumerus -43.0964 -6.67814 -68.9348
rradius 36.2834
rwrist -21.1629
rhand -15.5103 -29.8394
rfingers 7.12502
rthumb 10.6725 -59.5484
lclavicle 3.4191e-014 3.18055e-014
lhumerus -27.4581 -9.27254 69.2964
lradius 45.7949
lwrist 21.4714
lhand -28.0774 -10.8261
lfingers 7.12502
lthumb -1.46069 19.1487
rfemur -34.0104 -16.0309 24.7947
rtibia 36.4013
rfoot -23.6717 -23.9389
rtoes 10.3856
lfemur 1.1999 17.5971 -23.4474
ltibia 42.9294
lfoot -13.9857 2.04049
ltoes -20.752
999
root 40.6668 15.8623 -15.1883 -1421.16 59.3749 -342.877
lowerback 6.98302 -4.47904 -7.66232
upperback 2.80185 -6.37988 1.60385
thorax 0.047573 -3.26833 6.33411
lowerneck -14.2925 -15.1489 -19.0087
upperneck 23.1568 -21.7203 17.937
head 14.6922 -9.37685 5.96872
rclavicle 3.18055e-015 -1.59028e-014
rhumerus -43.3576 -6.41142 -69.1003
rradius 36.2477
rwrist -21.6777
rhand -15.6363 -29.9912
rfingers 7.12502
rthumb 10.551 -59.7063
lclavicle 3.18055e-015 -1.59028e-014
lhumerus -28.0245 -9.5753 70.5046
lradius 44.2889
lwrist 21.0416
lhand -27.381 -11.943
lfingers 7.12502
lthumb -0.78804 18.0353
rfemur -32.9928 -14.7451 25.599
rtibia 36.7773
rfoot -23.5594 -23.7906
rtoes 9.56585
lfemur -0.550094 18.5178 -21.4807
ltibia 48.2554
lfoot -9.37328 0.841382
ltoes -21.9779
1000
root 40.8782 15.8571 -15.0509 -1422.58 57.8096 -344.251
lowerback 7.39098 -4.82161 -7.59812
upperback 2.63545 -6.86487 1.95334
thorax -0.234726 -3.49811 6.73172
lowerneck -14.3719 -14.9682 -18.7227
upperneck 23.1752 -21.5263 17.9365
head 14.6311 -9.26831 5.97495
rclavicle -8.5875e-014 3.97569e-015
rhumerus -43.2753 -5.34609 -69.7328
rradius 36.3164
rwrist -21.6345
rhand -14.7633 -30.2344
rfingers 7.12502
rthumb 11.3931 -59.9049
lclavicle -8.5875e-014 3.97569e-015
lhumerus -28.7947 -8.67593 71.3774
lradius 42.6081
lwrist 19.8691
lhand -26.4696 -13.2
lfingers 7.12502
lthumb 0.0922046 16.7797
rfemur -32.1576 -14.1455 26.0656
rtibia 37.1903
rfoot -22.9792 -23.2113
rtoes 9.67961
lfemur -2.94004 18.0216 -20.6136
ltibia 53.7814
lfoot -5.18283 0.76107
ltoes -24.3618
1001
root 41.0774 15.8498 -14.9239 -1423.26 55.8229 -344.823
lowerback 7.47818 -5.05617 -7.48341
upperback 2.65578 -7.17829 1.67649
thorax -0.260152 -3.65006 6.39741
lowerneck -14.1855 -14.8434 -17.9336
upperneck 22.8582 -21.6266 18.2493
head 14.4223 -9.23823 5.95853
rclavicle -6.26172e-014 3.49861e-014
rhumerus -42.9116 -5.46782 -70.8151
rradius 35.9714
rwrist -20.7092
rhand -13.3718 -29.5979
rfingers 7.12502
rthumb 12.7348 -59.1895
lclavicle -6.26172e-014 3.49861e-014
lhumerus -29.1492 -8.28544 71.5849
lradius 40.7854
lwrist 17.6137
lhand -28.2054 -13.3035
lfingers 7.12502
lthumb -1.58425 16.6704
rfemur -31.4588 -13.4584 25.9901
rtibia 37.816
rfoot -22.6484 -22.0045
rtoes 13.6879
lfemur -5.99544 16.7406 -20.7259
ltibia 59.3023
lfoot -1.29677 1.04875
ltoes -23.4724
1002
root 41.2635 15.8099 -14.8098 -1424.65 53.6468 -346.078
lowerback 7.85253 -4.91673 -6.98367
upperback 2.68228 -6.98123 1.65547
thorax -0.537176 -3.53528 6.13186
lowerneck -13.6845 -15.0458 -17.9279
upperneck 22.3094 -22.0737 18.7469
head 14.2705 -9.43272 6.04982
rclavicle -3.26007e-014 -1.74931e-014
rhumerus -42.4704 -6.37577 -71.1366
rradius 35.4114
rwrist -19.4775
rhand -12.2534 -29.4122
rfingers 7.12502
rthumb 13.8128 -58.9337
lclavicle -3.26007e-014 -1.74931e-014
lhumerus -29.6816 -10.0357 73.1515
lradius 39.5673
lwrist 18.4674
lhand -26.7838 -11.7859
lfingers 7.12502
lthumb -0.211273 18.1937
rfemur -30.652 -12.2233 26.1817
rtibia 38.6088
rfoot -22.9489 -20.7721
rtoes 16.4549
lfemur -8.90223 15.8861 -20.2529
ltibia 64.4202
lfoot 2.35917 0.423881
ltoes -24.0516
1003
root 41.4577 15.7616 -14.7018 -1426.55 50.9537 -347.623
lowerback 8.3336 -4.68181 -6.32548
upperback 2.87803 -6.63928 1.66289
thorax -0.728917 -3.35531 5.7979
lowerneck -13.3543 -15.2653 -18.0342
upperneck 21.809 -22.4766 19.1679
head 14.1716 -9.61571 6.12816
rclavicle 6.93758e-014 -1.11319e-014
rhumerus -41.9463 -6.91544 -71.5753
rradius 35.2909
rwrist -18.3054
rhand -11.3979 -30.4024
rfingers 7.12502
rthumb 14.6372 -59.8658
lclavicle 6.93758e-014 -1.11319e-014
lhumerus -30.4128 -11.6877 74.9302
lradius 38.4067
lwrist 18.9748
lhand -26.5783 -11.4436
lfingers 7.12502
lthumb -0.0127858 18.5362
rfemur -29.5463 -10.9959 26.553
rtibia 39.4461
rfoot -23.2282 -19.5415
rtoes 15.8438
lfemur -11.2756 15.0006 -19.7473
ltibia 68.9829
lfoot 3.88482 0.0181059
ltoes -21.7117
1004
root 41.6578 15.6994 -14.5954 -1428.48 48.0188 -349.187
lowerback 8.98911 -4.45999 -6.08922
upperback 3.01824 -6.34886 2.03831
thorax -0.967513 -3.20537 6.09921
lowerneck -13.1218 -15.3563 -18.2084
upperneck 21.2924 -22.5384 19.2379
head 13.9539 -9.6872 6.1549
rclavicle 1.11518e-013 -2.54444e-014
rhumerus -41.3191 -6.75819 -71.6767
rradius 35.3281
rwrist -17.3558
rhand -10.5812 -30.5614
rfingers 7.12502
rthumb 15.4239 -59.966
lclavicle 1.11518e-013 -2.54444e-014
lhumerus -31.4469 -12.7708 77.2736
lradius 37.2124
lwrist 19.1832
lhand -26.5443 -11.2959
lfingers 7.12502
lthumb 0.020079 18.6839
rfemur -28.3799 -10.0633 27.0648
rtibia 40.2844
rfoot -23.4742 -18.1874
rtoes 14.3107
lfemur -13.0853 14.5682 -19.4178
ltibia 72.5734
lfoot 2.3003 -1.10103
ltoes -28.2656
1005
root 41.864 15.6764 -14.4716 -1429.66 44.5308 -350.127
lowerback 8.54166 -4.12385 -5.54322
upperback 3.58203 -5.82511 1.67484
thorax -0.308515 -2.97181 5.30937
lowerneck -13.5212 -15.895 -18.1313
upperneck 21.175 -23.3996 19.543
head 14.2349 -10.001 6.00246
rclavicle 1.49089e-014 -1.27222e-014
rhumerus -40.2254 -7.80276 -72.5099
rradius 35.2721
rwrist -16.0521
rhand -9.08715 -29.6683
rfingers 7.12502
rthumb 16.8625 -58.9562
lclavicle 1.49089e-014 -1.27222e-014
lhumerus -31.6853 -14.8575 78.6666
lradius 36.0399
lwrist 19.3633
lhand -25.266 -10.9881
lfingers 7.12502
lthumb 1.25467 18.9879
rfemur -27.3011 -8.52942 27.1275
rtibia 40.9674
rfoot -23.8538 -17.0241
rtoes 12.5907
lfemur -15.5695 13.7847 -19.6552
ltibia 75.5185
lfoot 0.513169 -0.322287
ltoes -22.0141
1006
root 42.0568 15.6656 -14.3466 -1430.58 40.928 -350.869
lowerback 8.77998 -3.80944 -5.35648
upperback 3.57523 -5.41152 1.47545
thorax -0.540427 -2.75366 4.99315
lowerneck -13.2332 -16.0116 -18.0916
upperneck 21.0652 -23.6726 19.6964
head 14.2157 -10.1299 5.99729
rclavicle -6.44062e-014 3.02153e-014
rhumerus -39.7456 -7.75743 -73.5201
rradius 35.7215
rwrist -15.2055
rhand -9.58889 -29.9264
rfingers 7.12502
rthumb 16.3795 -59.2548
lclavicle -6.44062e-014 3.02153e-014
lhumerus -32.8229 -15.683 80.2334
lradius 34.9349
lwrist 18.0218
lhand -23.3735 -11.0462
lfingers 7.12502
lthumb 3.08242 18.9113
rfemur -26.2805 -6.74154 27.1554
rtibia 41.5106
rfoot -24.091 -16.2321
rtoes 10.6087
lfemur -18.4508 12.7292 -19.767
ltibia 77.882
lfoot -1.0319 0.3119
ltoes -18.4651
1007
root 42.2644 15.6538 -14.2089 -1431.39 37.1689 -351.468
lowerback 8.94603 -3.61116 -5.82105
upperback 3.52601 -5.19782 1.68712
thorax -0.6445 -2.65148 5.4746
lowerneck -13.2015 -15.8801 -18.1797
upperneck 21.1655 -23.4531 19.5521
head 14.1847 -10.0607 6.01728
rclavicle -5.64548e-014 2.38542e-015
rhumerus -39.161 -6.28574 -74.4067
rradius 36.6196
rwrist -14.9812
rhand -9.03716 -29.9964
rfingers 7.12502
rthumb 16.9107 -59.2801
lclavicle -5.64548e-014 2.38542e-015
lhumerus -34.2764 -14.6637 82.1408
lradius 33.9947
lwrist 15.8423
lhand -21.8007 -11.3396
lfingers 7.12502
lthumb 4.60126 18.5904
rfemur -25.1024 -4.91766 27.0107
rtibia 41.9066
rfoot -24.3648 -15.303
rtoes 9.40832
lfemur -20.7311 11.8648 -19.9159
ltibia 79.2612
lfoot -2.78028 1.33096
ltoes -13.7023
